<svg width="27" height="22" viewBox="0 0 27 22" fill="none" xmlns="http://www.w3.org/2000/svg">
<g clip-path="url(#clip0_5_134)">
<path d="M0 11C0 13.9174 1.42232 16.7153 3.95406 18.7782C6.4858 20.8411 9.91958 22 13.5 22C17.0804 22 20.5142 20.8411 23.0459 18.7782C25.5777 16.7153 27 13.9174 27 11C27 8.08262 25.5777 5.28473 23.0459 3.22183C20.5142 1.15893 17.0804 0 13.5 0C9.91958 0 6.4858 1.15893 3.95406 3.22183C1.42232 5.28473 0 8.08262 0 11ZM9.963 14.8541C9.88517 14.9198 9.79206 14.9722 9.68912 15.0082C9.58618 15.0442 9.47546 15.0632 9.36343 15.064C9.2514 15.0648 9.1403 15.0474 9.0366 15.0128C8.93291 14.9782 8.8387 14.9272 8.75948 14.8626C8.68026 14.7981 8.61761 14.7213 8.57518 14.6368C8.53276 14.5524 8.51141 14.4618 8.51238 14.3705C8.51336 14.2793 8.53663 14.189 8.58085 14.1052C8.62507 14.0213 8.68935 13.9454 8.76994 13.882L15.6819 8.25H11.0109C10.7872 8.25 10.5725 8.17757 10.4143 8.04864C10.2561 7.9197 10.1672 7.74484 10.1672 7.5625C10.1672 7.38016 10.2561 7.2053 10.4143 7.07636C10.5725 6.94743 10.7872 6.875 11.0109 6.875H17.7188C17.9425 6.875 18.1571 6.94743 18.3154 7.07636C18.4736 7.2053 18.5625 7.38016 18.5625 7.5625V13.0281C18.5625 13.2105 18.4736 13.3853 18.3154 13.5143C18.1571 13.6432 17.9425 13.7156 17.7188 13.7156C17.495 13.7156 17.2804 13.6432 17.1221 13.5143C16.9639 13.3853 16.875 13.2105 16.875 13.0281V9.22213L9.963 14.8541Z" fill="black"/>
</g>
<defs>
<clipPath id="clip0_5_134">
<rect width="27" height="22" fill="white"/>
</clipPath>
</defs>
</svg>
