<svg width="52" height="50" viewBox="0 0 52 50" fill="none" xmlns="http://www.w3.org/2000/svg">
<path d="M19.5 39.5834C8.66665 42.7084 8.66665 34.3751 4.33331 33.3334M34.6666 45.8334V37.7709C34.7479 36.7775 34.6083 35.7788 34.2572 34.8413C33.906 33.9038 33.3513 33.0489 32.63 32.3334C39.4333 31.6042 46.5833 29.1251 46.5833 17.7501C46.5828 14.8414 45.4191 12.0442 43.3333 9.93757C44.321 7.39279 44.2512 4.57997 43.1383 2.08341C43.1383 2.08341 40.5816 1.35424 34.6666 5.16674C29.7007 3.87262 24.466 3.87262 19.5 5.16674C13.585 1.35424 11.0283 2.08341 11.0283 2.08341C9.91546 4.57997 9.84563 7.39279 10.8333 9.93757C8.73192 12.0599 7.56711 14.8823 7.58331 17.8126C7.58331 29.1042 14.7333 31.5834 21.5366 32.3959C20.8238 33.1042 20.2741 33.9488 19.9231 34.8749C19.5722 35.801 19.4281 36.7877 19.5 37.7709V45.8334" stroke="white" stroke-width="4" stroke-linecap="round" stroke-linejoin="round"/>
</svg>
